# AST/ASF file generated using VICON BodyLanguage
# -----------------------------------------------
:version 1.10
:name VICON
:units
  mass 1.0
  length 0.45
  angle deg
:documentation
   .ast/.asf automatically generated from VICON data using
   VICON BodyBuilder and BodyLanguage model FoxedUp or BRILLIANT.MOD
:root
   order TX TY TZ RX RY RZ
   axis XYZ
   position 0 0 0  
   orientation 0 0 0 
:bonedata
  begin
     id 1 
     name lhipjoint
     direction 0.589753 -0.68606 0.426044 
     length 2.54082 
     axis 0 0 0  XYZ
  end
  begin
     id 2 
     name lfemur
     direction 0.34202 -0.939693 0  
     length 7.04539  
     axis 0 0 20  XYZ
    dof rx ry rz
    limits (-160.0 20.0)
           (-70.0 70.0)
           (-60.0 70.0)
  end
  begin
     id 3 
     name ltibia
     direction 0.34202 -0.939693 0   
     length 7.83772   
     axis 0 0 20   XYZ
    dof rx
    limits (-10.0 170.0)
  end
  begin
     id 4 
     name lfoot
     direction 0.0596604 -0.163915 0.984669   
     length 2.39542   
     axis -90 7.62852e-016 20   XYZ
    dof rx rz
    limits (-45.0 90.0)
           (-70.0 20.0)
  end
  begin
     id 5 
     name ltoes
     direction 1.53514e-011 -4.21954e-011 1   
     length 1.2047   
     axis -90 7.62852e-016 20   XYZ
    dof rx
    limits (-90.0 20.0)
  end
  begin
     id 6 
     name rhipjoint
     direction -0.580585 -0.69168 0.429534   
     length 2.52018  
     axis 0 0 0  XYZ 
  end
  begin
     id 7 
     name rfemur
     direction -0.34202 -0.939693 0   
     length 7.0101   
     axis 0 0 -20   XYZ
    dof rx ry rz
    limits (-160.0 20.0)
           (-70.0 70.0)
           (-70.0 60.0)
  end
  begin
     id 8 
     name rtibia
     direction -0.34202 -0.939693 0   
     length 7.70628   
     axis 0 0 -20   XYZ
    dof rx
    limits (-10.0 170.0)
 end
 begin
     id 9 
     name rfoot
     direction -0.0696237 -0.19129 0.979061   
     length 2.52466  
     axis -90 -7.62852e-016 -20   XYZ
    dof rx rz
    limits (-45.0 90.0)
           (-20.0 70.0)
  end
  begin
     id 10 
     name rtoes
     direction -1.53519e-011 -4.21793e-011 1   
     length 1.266   
     axis -90 -7.62852e-016 -20   XYZ
    dof rx
    limits (-90.0 20.0)
  end
  begin
     id 11 
     name lowerback
     direction 0.00381965 0.995707 -0.0924856   
     length 2.20825   
     axis 0 0 0   XYZ
    dof rx ry rz
    limits (-20.0 45.0)
           (-30.0 30.0)
           (-30.0 30.0)
  end
  begin
     id 12 
     name upperback
     direction -0.0139043 0.999634 -0.0231929   
     length 2.21517   
     axis 0 0 0   XYZ
    dof rx ry rz
    limits (-20.0 45.0)
           (-30.0 30.0)
           (-30.0 30.0)
  end
  begin
     id 13 
     name thorax
     direction -0.0143933 0.999691 0.0202892   
     length 2.22911   
     axis 0 0 0   XYZ
    dof rx ry rz
    limits (-20.0 45.0)
           (-30.0 30.0)
           (-30.0 30.0)
  end
  begin
     id 14 
     name lowerneck
     direction -0.0251153 0.981819 0.188153   
     length 1.61782   
     axis 0 0 0   XYZ
    dof rx ry rz
    limits (-20.0 45.0)
           (-30.0 30.0)
           (-30.0 30.0)
  end
  begin
     id 15 
     name upperneck
     direction 0.0563891 0.969357 -0.239095   
     length 1.64526   
     axis 0 0 0   XYZ
    dof rx ry rz
    limits (-20.0 45.0)
           (-30.0 30.0)
           (-30.0 30.0)
  end
  begin
     id 16
     name head
     direction 0.0208328 0.99459 -0.101773  
     length 1.67436  
     axis 0 0 0   XYZ
    dof rx ry rz
    limits (-20.0 45.0)
           (-30.0 30.0)
           (-30.0 30.0)
  end
  begin
     id 17 
     name lclavicle
     direction 0.917689 0.397224 0.00772059  
     length 3.31102  
     axis 0 0 0   XYZ
    dof ry rz
    limits (-20.0 10.0)
           (0.0 20.0)
  end
  begin
     id 18 
     name lhumerus
     direction 1 -4.4896e-011 2.32308e-027   
     length 5.25537   
     axis 180 -30 -90   XYZ
    dof rx ry rz
    limits (-60.0 90.0)
           (-90.0 90.0)
           (-90.0 90.0)
  end
  begin
     id 19
     name lradius
     direction 1 -4.49005e-011 -2.04271e-027   
     length 3.38855   
     axis 180 -30 -90   XYZ
    dof rx
    limits (-10.0 170.0)
  end
  begin
     id 20
     name lwrist
     direction 1 -4.48892e-011 2.56952e-028   
     length 1.69428   
     axis -5.12785e-016 90 90   XYZ
    dof ry
    limits (-180.0 0.0)
 end
  begin
     id 21 
     name lhand
     direction 1 -4.48966e-011 5.13905e-028   
     length 0.614516   
     axis -3.27915e-016 90 90   XYZ
    dof rx rz
    limits (-90.0 90.0)
           (-45.0 45.0)
  end
  begin
     id 22 
     name lfingers
     direction 1 -4.48979e-011 1.02781e-027   
     length 0.495439   
     axis -6.5583e-016 90 90   XYZ
    dof rx
    limits (0.0 90.0)
  end
  begin
     id 23
     name lthumb
     direction 0.707107 -6.35001e-011 0.707107   
     length 0.711354   
     axis -90 45 2.85299e-015   XYZ
    dof rx rz
    limits (-45.0 45.0)
           (-45.0 45.0)
  end
  begin
     id 24 
     name rclavicle
     direction -0.938556 0.342765 -0.0403177   
     length 3.27019  
     axis 0 0 0   XYZ 
    dof ry rz
    limits (-10.0 20.0)
           (-20.0 0.0)
  end
  begin
     id 25 
     name rhumerus
     direction -1 -4.48966e-011 2.52291e-027  
     length 5.38183   
     axis 180 30 90   XYZ
    dof rx ry rz
    limits (-90.0 60.0)
           (-90.0 90.0)
           (-90.0 90.0)
  end
  begin
     id 26 
     name rradius
     direction -1 -4.4896e-011 1.5797e-027   
     length 3.16988   
     axis 180 30 90   XYZ
    dof rx
    limits (-10.0 170.0)
  end
  begin
     id 27 
     name rwrist
     direction -1 -4.48947e-011 2.56952e-028   
     length 1.58494   
     axis -5.12785e-016 -90 -90   XYZ
    dof ry
    limits (-180.0 0.0)
  end
  begin
     id 28
     name rhand
     direction -1 -4.49098e-011 5.13905e-028   
     length 0.637679   
     axis -3.27915e-016 -90 -90   XYZ
    dof rx rz
    limits (-90.0 90.0)
           (-45.0 45.0)
  end
  begin
     id 29
     name rfingers
     direction -1 -4.49026e-011 1.02781e-027   
     length 0.514113   
     axis -6.5583e-016 -90 -90   XYZ
    dof rx
    limits (0.0 90.0)
  end
  begin
     id 30
     name rthumb
     direction -0.707107 -6.3491e-011 0.707107   
     length 0.738167   
     axis -90 -45 -2.85299e-015   XYZ
    dof rx rz
    limits (-45.0 45.0)
           (-45.0 45.0)
  end
:hierarchy
  begin
    root lhipjoint rhipjoint lowerback
    lhipjoint lfemur
    lfemur ltibia
    ltibia lfoot
    lfoot ltoes
    rhipjoint rfemur
    rfemur rtibia
    rtibia rfoot
    rfoot rtoes
    lowerback upperback
    upperback thorax
    thorax lowerneck lclavicle rclavicle
    lowerneck upperneck
    upperneck head
    lclavicle lhumerus
    lhumerus lradius
    lradius lwrist
    lwrist lhand lthumb
    lhand lfingers
    rclavicle rhumerus
    rhumerus rradius
    rradius rwrist
    rwrist rhand rthumb
    rhand rfingers
  end

#!OML:ASF H:\Swim\Project 1\Capture day 1\Session 1\swimmer.ASF
:FULLY-SPECIFIED
:DEGREES
1654
root 4.40909 12.2155 9.20246 94.1383 0.1136 -1.20211
lowerback 2.79941 -1.70014 0.520649
upperback -7.20846 -2.26879 0.591983
thorax -9.1596 -1.1505 0.581952
lowerneck -9.75109 -4.95725 -18.1352
upperneck -3.26805 -4.93623 18.464
head 1.65633 -2.06324 8.53016
rclavicle -2.38542e-015 8.54774e-015
rhumerus 42.5748 6.04319 49.119
rradius 30.0904
rwrist -64.193
rhand -12.2557 -20.3409
rfingers 7.12502
rthumb 13.8106 -49.8624
lclavicle -2.38542e-015 8.54774e-015
lhumerus 56.2051 35.1147 15.9974
lradius 20.1988
lwrist -38.6131
lhand 7.13248 23.7627
lfingers 7.12502
lthumb 32.4018 50.8872
rfemur -6.59006 21.6888 -8.13493
rtibia 13.171
rfoot -1.0979 -32.3902
rtoes 10.7774
lfemur -19.0056 -5.4038 6.83054
ltibia 32.8264
lfoot 10.8672 15.6733
ltoes 13.5017
1655
root 4.40589 12.2089 9.24721 94.8744 0.138452 -1.11433
lowerback 2.41649 -1.72359 0.529163
upperback -7.19267 -2.30654 0.56391
thorax -8.91648 -1.17319 0.537048
lowerneck -9.53116 -4.96636 -18.217
upperneck -3.8354 -4.9224 18.609
head 1.46403 -2.06692 8.60191
rclavicle 1.59028e-015 1.39149e-015
rhumerus 42.3428 8.0909 49.809
rradius 29.8254
rwrist -63.026
rhand -11.7291 -19.8125
rfingers 7.12502
rthumb 14.3181 -49.2988
lclavicle 1.59028e-015 1.39149e-015
lhumerus 52.5651 33.9668 12.1068
lradius 20.4946
lwrist -36.5253
lhand 7.63391 23.7321
lfingers 7.12502
lthumb 32.8789 50.7578
rfemur -7.51691 22.4817 -8.5087
rtibia 12.7481
rfoot -3.16141 -34.14
rtoes 12.5086
lfemur -19.5465 -5.87401 6.99351
ltibia 32.072
lfoot 10.8111 15.9162
ltoes 13.6038
1656
root 4.40295 12.2028 9.29304 95.6181 0.160093 -1.02411
lowerback 1.96816 -1.7374 0.537247
upperback -7.19768 -2.33157 0.537085
thorax -8.65825 -1.18969 0.490319
lowerneck -9.33542 -4.97486 -18.2749
upperneck -4.37454 -4.90827 18.7353
head 1.28262 -2.06996 8.66351
rclavicle 1.59028e-014 2.98177e-015
rhumerus 42.2013 10.1874 50.4921
rradius 29.5224
rwrist -61.524
rhand -11.0996 -19.1697
rfingers 7.12502
rthumb 14.9245 -48.612
lclavicle 1.59028e-014 2.98177e-015
lhumerus 49.1885 32.5348 8.58877
lradius 20.7678
lwrist -34.5559
lhand 7.92231 23.5317
lfingers 7.12502
lthumb 33.1532 50.4995
rfemur -8.5807 22.8996 -8.84025
rtibia 12.6987
rfoot -5.20947 -35.5397
rtoes 13.9972
lfemur -20.155 -6.1952 7.10764
ltibia 31.5486
lfoot 10.7451 16.1402
ltoes 13.6919
1657
root 4.40018 12.1967 9.33993 96.3684 0.180888 -0.932542
lowerback 1.45759 -1.73827 0.548329
upperback -7.22653 -2.3391 0.51165
thorax -8.39037 -1.19774 0.439982
lowerneck -9.15438 -4.98067 -18.314
upperneck -4.87207 -4.89328 18.8353
head 1.11391 -2.07233 8.71317
rclavicle 6.36111e-015 2.88238e-015
rhumerus 42.137 12.2756 51.1192
rradius 29.2204
rwrist -59.9852
rhand -10.4373 -18.465
rfingers 7.12502
rthumb 15.5625 -47.8588
lclavicle 6.36111e-015 2.88238e-015
lhumerus 46.0995 30.844 5.44655
lradius 21.0283
lwrist -32.5806
lhand 7.98453 23.2381
lfingers 7.12502
lthumb 33.2123 50.1933
rfemur -9.73987 22.9357 -9.10943
rtibia 12.943
rfoot -6.99246 -36.4869
rtoes 15.1145
lfemur -20.8186 -6.38783 7.17344
ltibia 31.232
lfoot 10.6861 16.3404
ltoes 13.8072
1658
root 4.39757 12.1902 9.38726 97.1225 0.207699 -0.840572
lowerback 0.890214 -1.72688 0.567398
upperback -7.27648 -2.3298 0.487617
thorax -8.11333 -1.19791 0.383821
lowerneck -9.00118 -4.98323 -18.3266
upperneck -5.32099 -4.87609 18.9016
head 0.961139 -2.07278 8.74656
rclavicle 2.3059e-014 -1.98785e-016
rhumerus 42.1193 14.26 51.5827
rradius 28.9533
rwrist -58.5952
rhand -9.78374 -17.7909
rfingers 7.12502
rthumb 16.1919 -47.1346
lclavicle 2.3059e-014 -1.98785e-016
lhumerus 43.303 28.9338 2.65923
lradius 21.2927
lwrist -30.5026
lhand 7.89605 22.9139
lfingers 7.12502
lthumb 33.1282 49.8869
rfemur -10.9614 22.6036 -9.29572
rtibia 13.4174
rfoot -8.26531 -36.9563
rtoes 15.7069
lfemur -21.5218 -6.46382 7.19717
ltibia 31.0902
lfoot 10.6689 16.4801
ltoes 13.9427
1659
root 4.39495 12.1832 9.43434 97.8742 0.237424 -0.749263
lowerback 0.279263 -1.70919 0.598474
upperback -7.33761 -2.31206 0.459375
thorax -7.82468 -1.19475 0.314973
lowerneck -8.91024 -4.98494 -18.3111
upperneck -5.70202 -4.85656 18.9451
head 0.835823 -2.06944 8.76624
rclavicle -3.10104e-014 -2.18663e-015
rhumerus 42.0991 16.04 51.7597
rradius 28.7498
rwrist -57.4704
rhand -9.17737 -17.2332
rfingers 7.12502
rthumb 16.7757 -46.5284
lclavicle -3.10104e-014 -2.18663e-015
lhumerus 40.6997 26.777 0.0584893
lradius 21.609
lwrist -28.2132
lhand 7.72237 22.688
lfingers 7.12502
lthumb 32.963 49.696
rfemur -12.2165 21.9663 -9.3954
rtibia 14.0711
rfoot -8.87062 -36.9873
rtoes 16.0539
lfemur -22.2485 -6.44551 7.17824
ltibia 31.0875
lfoot 10.7134 16.5541
ltoes 14.0302
1660
root 4.39222 12.1757 9.48068 98.6158 0.272436 -0.65827
lowerback -0.361444 -1.68475 0.645247
upperback -7.40758 -2.28548 0.422398
thorax -7.5304 -1.18829 0.227333
lowerneck -8.86553 -4.98799 -18.276
upperneck -6.02298 -4.83869 18.9918
head 0.735292 -2.06495 8.78224
rclavicle 3.18055e-015 -6.65929e-015
rhumerus 42.025 17.5738 51.5681
rradius 28.6314
rwrist -56.6659
rhand -8.67049 -16.8293
rfingers 7.12502
rthumb 17.2636 -46.0825
lclavicle 3.18055e-015 -6.65929e-015
lhumerus 38.3261 24.4325 -2.32463
lradius 21.9792
lwrist -25.8083
lhand 7.54354 22.5249
lfingers 7.12502
lthumb 32.7929 49.5686
rfemur -13.479 21.1007 -9.40679
rtibia 14.8581
rfoot -8.73662 -36.6339
rtoes 15.8408
lfemur -22.9823 -6.35926 7.12217
ltibia 31.1916
lfoot 10.8295 16.5525
ltoes 14.055
1661
root 4.38924 12.1677 9.52562 99.342 0.312737 -0.563457
lowerback -1.01697 -1.6588 0.705887
upperback -7.48421 -2.2573 0.379596
thorax -7.23675 -1.18185 0.12612
lowerneck -8.86357 -4.99468 -18.2208
upperneck -6.28564 -4.82623 19.04
head 0.659059 -2.06143 8.79358
rclavicle 2.14687e-014 8.15017e-015
rhumerus 41.8907 18.8856 51.0389
rradius 28.606
rwrist -56.1971
rhand -8.33858 -16.5722
rfingers 7.12502
rthumb 17.583 -45.7971
lclavicle 2.14687e-014 8.15017e-015
lhumerus 36.1955 22.0069 -4.43708
lradius 22.4036
lwrist -23.4272
lhand 7.46721 22.3699
lfingers 7.12502
lthumb 32.7203 49.4287
rfemur -14.7308 20.1098 -9.34002
rtibia 15.7442
rfoot -7.96159 -35.9595
rtoes 15.2329
lfemur -23.7153 -6.23018 7.03471
ltibia 31.3735
lfoot 11.0195 16.4617
ltoes 14.0477
1662
root 4.38583 12.1597 9.569 100.04 0.358299 -0.464715
lowerback -1.66295 -1.63804 0.78435
upperback -7.56391 -2.23702 0.326116
thorax -6.95444 -1.18054 0.00532933
lowerneck -8.92365 -5.00538 -18.1237
upperneck -6.46645 -4.82121 19.0726
head 0.615984 -2.05937 8.7897
rclavicle 1.43125e-014 -2.88238e-015
rhumerus 41.6855 19.9905 50.1878
rradius 28.658
rwrist -55.9577
rhand -8.16158 -16.4302
rfingers 7.12502
rthumb 17.7534 -45.6397
lclavicle 1.43125e-014 -2.88238e-015
lhumerus 34.2867 19.5452 -6.31155
lradius 22.862
lwrist -21.2088
lhand 7.46657 22.0696
lfingers 7.12502
lthumb 32.7197 49.1285
rfemur -15.9558 19.0724 -9.20403
rtibia 16.7072
rfoot -6.68278 -34.9993
rtoes 14.1929
lfemur -24.4297 -6.07936 6.91926
ltibia 31.6087
lfoot 11.2601 16.2754
ltoes 14.0669
1663
root 4.38169 12.1516 9.61042 100.699 0.412889 -0.357789
lowerback -2.27747 -1.6217 0.872815
upperback -7.65061 -2.22307 0.274003
thorax -6.69944 -1.18264 -0.117588
lowerneck -9.01201 -5.02271 -18.0242
upperneck -6.58036 -4.8278 19.1105
head 0.598973 -2.06163 8.78498
rclavicle -5.56597e-015 -3.37934e-015
rhumerus 41.4276 20.9389 49.1063
rradius 28.7583
rwrist -55.8015
rhand -8.08325 -16.3339
rfingers 7.12502
rthumb 17.8287 -45.5367
lclavicle -5.56597e-015 -3.37934e-015
lhumerus 32.5953 17.0918 -7.91382
lradius 23.3435
lwrist -19.2242
lhand 7.53288 21.5952
lfingers 7.12502
lthumb 32.7828 48.6409
rfemur -17.1388 18.0572 -9.00358
rtibia 17.7298
rfoot -5.10001 -33.8021
rtoes 12.7732
lfemur -25.1135 -5.92155 6.78533
ltibia 31.8789
lfoot 11.5296 16.0052
ltoes 14.0535
1664
root 4.37667 12.1438 9.64953 101.312 0.468936 -0.242059
lowerback -2.84565 -1.61599 0.960033
upperback -7.74148 -2.22413 0.2234
thorax -6.47674 -1.19196 -0.235751
lowerneck -9.13261 -5.04538 -17.9187
upperneck -6.64401 -4.84252 19.1443
head 0.602691 -2.06636 8.77602
rclavicle 1.98785e-014 6.85807e-015
rhumerus 41.1436 21.7803 47.8766
rradius 28.8753
rwrist -55.5709
rhand -8.06043 -16.2084
rfingers 7.12502
rthumb 17.8507 -45.4091
lclavicle 1.98785e-014 6.85807e-015
lhumerus 31.0802 14.6572 -9.28766
lradius 23.856
lwrist -17.4152
lhand 7.60143 20.9733
lfingers 7.12502
lthumb 32.848 48.0055
rfemur -18.2727 17.0824 -8.75199
rtibia 18.7989
rfoot -3.39383 -32.3989
rtoes 11.1045
lfemur -25.7585 -5.77638 6.62951
ltibia 32.171
lfoot 11.7971 15.6583
ltoes 13.9616
1665
root 4.37046 12.1361 9.68631 101.873 0.523102 -0.116547
lowerback -3.35615 -1.61853 1.03763
upperback -7.83962 -2.23659 0.175979
thorax -6.29552 -1.2062 -0.34278
lowerneck -9.23535 -5.06853 -17.8229
upperneck -6.7002 -4.86095 19.172
head 0.606196 -2.07356 8.76657
rclavicle -3.97569e-015 -1.19271e-015
rhumerus 40.8309 22.5379 46.5359
rradius 28.9887
rwrist -55.1225
rhand -8.01784 -15.9912
rfingers 7.12502
rthumb 17.8917 -45.1882
lclavicle -3.97569e-015 -1.19271e-015
lhumerus 29.7476 12.2748 -10.4174
lradius 24.3972
lwrist -15.7096
lhand 7.62645 20.2502
lfingers 7.12502
lthumb 32.8718 47.2774
rfemur -19.3491 16.1827 -8.45793
rtibia 19.8983
rfoot -1.74165 -30.8738
rtoes 9.42876
lfemur -26.3598 -5.6548 6.45238
ltibia 32.4782
lfoot 12.0395 15.2454
ltoes 13.7353
1666
root 4.36321 12.1286 9.72047 102.392 0.567404 0.0234711
lowerback -3.81924 -1.63152 1.09472
upperback -7.94285 -2.26339 0.131623
thorax -6.14695 -1.22636 -0.433306
lowerneck -9.29636 -5.08874 -17.7364
upperneck -6.80059 -4.87671 19.196
head 0.589812 -2.08153 8.759
rclavicle 7.15625e-015 3.47873e-015
rhumerus 40.462 23.18 45.0548
rradius 29.0905
rwrist -54.3155
rhand -7.88601 -15.6488
rfingers 7.12502
rthumb 18.0185 -44.8342
lclavicle 7.15625e-015 3.47873e-015
lhumerus 28.5934 9.9987 -11.2975
lradius 24.9811
lwrist -13.9867
lhand 7.65088 19.5596
lfingers 7.12502
lthumb 32.895 46.5819
rfemur -20.3691 15.3205 -8.12941
rtibia 21.007
rfoot -0.248009 -29.2853
rtoes 7.69067
lfemur -26.931 -5.56264 6.25049
ltibia 32.7978
lfoot 12.2402 14.7712
ltoes 13.5298
1667
root 4.35497 12.1214 9.75153 102.875 0.597642 0.175158
lowerback -4.23957 -1.65464 1.1264
upperback -8.04706 -2.30389 0.0874921
thorax -6.02371 -1.25194 -0.508048
lowerneck -9.31751 -5.10587 -17.6489
upperneck -6.95276 -4.88934 19.2117
head 0.551143 -2.09033 8.75011
rclavicle 2.62396e-014 8.15017e-015
rhumerus 40.0029 23.6675 43.3882
rradius 29.1845
rwrist -53.053
rhand -7.61766 -15.1748
rfingers 7.12502
rthumb 18.2767 -44.3362
lclavicle 2.62396e-014 8.15017e-015
lhumerus 27.6228 7.9062 -11.906
lradius 25.5847
lwrist -12.2336
lhand 7.63013 18.8745
lfingers 7.12502
lthumb 32.8753 45.9009
rfemur -21.3314 14.5175 -7.77766
rtibia 22.097
rfoot 0.976299 -27.744
rtoes 6.31543
lfemur -27.4807 -5.49421 6.0221
ltibia 33.1317
lfoot 12.3945 14.2438
ltoes 13.1534
